# xmcd
#
# Track frame offsets: 
#        150
#        22088
#        40786
#        62723
#
# Disc length: 1082 seconds
#
# Revision: 1
# Processed by: cddbd v1.5.2PL0 Copyright (c) Steve Scherf et al.
# Submitted via: ExactAudioCopy v1.0b3
#
DISCID=2e043804
DTITLE=川田まみ - Prophecy
DYEAR=2009
DGENRE=JPop
TTITLE0=Prophecy
TTITLE1=a frame
TTITLE2=Prophecy -Instrumental-
TTITLE3=a frame -Instrumental-
EXTD=YEAR: 2009
EXTT0=
EXTT1=
EXTT2=
EXTT3=
PLAYORDER=
